<?xml version="1.0" encoding="utf-8"?>
<!DOCTYPE svg PUBLIC "-//W3C//DTD SVG 20010904//EN" "http://www.w3.org/TR/2001/REC-SVG-20010904/DTD/svg10.dtd">
<svg version="1.0" xmlns="http://www.w3.org/2000/svg" width="66pt" height="66pt" viewBox="0 0 66 66" style="" preserveAspectRatio="xMidYMid meet">
<g fill="#518BFEFF" stroke="#518BFEFF">
<path d="M 16.259 11.672 C 11.602 12.638 11.000 15.154 11.000 33.650 L 11.000 50.855 13.635 52.927 C 16.062 54.837 17.588 55.000 33.024 55.000 C 55.949 55.000 54.500 56.443 54.500 33.616 C 54.500 10.299 55.643 11.553 34.225 11.353 C 25.576 11.273 17.491 11.416 16.259 11.672 M 34.429 23.500 C 35.293 26.525 36.734 31.569 37.632 34.708 L 39.263 40.417 40.905 35.958 C 42.508 31.606 42.661 31.493 47.358 31.192 C 51.545 30.923 52.125 31.118 51.826 32.692 C 51.599 33.893 50.428 34.603 48.340 34.806 C 45.438 35.089 45.018 35.624 42.849 41.806 C 39.508 51.326 38.144 50.741 34.554 38.250 C 31.899 29.011 30.000 25.382 30.000 29.545 C 30.000 32.404 25.336 36.000 21.627 36.000 C 17.178 36.000 15.000 35.143 15.000 33.393 C 15.000 32.414 16.302 32.000 19.378 32.000 C 24.787 32.000 24.896 31.872 28.948 20.750 C 30.560 16.326 32.684 17.392 34.429 23.500 "/></g>
</svg>
